<svg width="98" height="96" viewBox="0 0 98 96" fill="none" xmlns="http://www.w3.org/2000/svg">
<path d="M0 25C0 20.5817 3.58172 17 8 17H71C75.4183 17 79 20.5817 79 25V88C79 92.4183 75.4183 96 71 96H0V25Z" fill="#E8E8E8" fill-opacity="0.1"/>
<circle cx="18.1579" cy="2.15789" r="2.15789" fill="white" fill-opacity="0.2"/>
<circle cx="26.7902" cy="2.15789" r="2.15789" fill="white" fill-opacity="0.2"/>
<circle cx="35.4211" cy="2.15789" r="2.15789" fill="white" fill-opacity="0.2"/>
<circle cx="44.0524" cy="2.15789" r="2.15789" fill="white" fill-opacity="0.2"/>
<circle cx="52.6833" cy="2.15789" r="2.15789" fill="white" fill-opacity="0.2"/>
<circle cx="61.3156" cy="2.15789" r="2.15789" fill="white" fill-opacity="0.2"/>
<circle cx="69.9474" cy="2.15789" r="2.15789" fill="white" fill-opacity="0.2"/>
<circle cx="78.5788" cy="2.15789" r="2.15789" fill="white" fill-opacity="0.2"/>
<circle cx="87.2101" cy="2.15789" r="2.15789" fill="white" fill-opacity="0.2"/>
<circle cx="95.8425" cy="2.15789" r="2.15789" fill="white" fill-opacity="0.2"/>
<circle cx="18.1579" cy="10.7895" r="2.15789" fill="white" fill-opacity="0.2"/>
<circle cx="26.7902" cy="10.7895" r="2.15789" fill="white" fill-opacity="0.2"/>
<circle cx="35.4211" cy="10.7895" r="2.15789" fill="white" fill-opacity="0.2"/>
<circle cx="44.0524" cy="10.7895" r="2.15789" fill="white" fill-opacity="0.2"/>
<circle cx="52.6833" cy="10.7895" r="2.15789" fill="white" fill-opacity="0.2"/>
<circle cx="61.3156" cy="10.7895" r="2.15789" fill="white" fill-opacity="0.2"/>
<circle cx="69.9474" cy="10.7895" r="2.15789" fill="white" fill-opacity="0.2"/>
<circle cx="78.5788" cy="10.7895" r="2.15789" fill="white" fill-opacity="0.2"/>
<circle cx="87.2101" cy="10.7895" r="2.15789" fill="white" fill-opacity="0.2"/>
<circle cx="95.8425" cy="10.7895" r="2.15789" fill="white" fill-opacity="0.2"/>
<circle cx="18.1579" cy="19.4211" r="2.15789" fill="white" fill-opacity="0.2"/>
<circle cx="26.7902" cy="19.4211" r="2.15789" fill="white" fill-opacity="0.2"/>
<circle cx="35.4211" cy="19.4211" r="2.15789" fill="white" fill-opacity="0.2"/>
<circle cx="44.0524" cy="19.4211" r="2.15789" fill="white" fill-opacity="0.2"/>
<circle cx="52.6833" cy="19.4211" r="2.15789" fill="white" fill-opacity="0.2"/>
<circle cx="61.3156" cy="19.4211" r="2.15789" fill="white" fill-opacity="0.2"/>
<circle cx="69.9474" cy="19.4211" r="2.15789" fill="white" fill-opacity="0.2"/>
<circle cx="78.5788" cy="19.4211" r="2.15789" fill="white" fill-opacity="0.2"/>
<circle cx="87.2101" cy="19.4211" r="2.15789" fill="white" fill-opacity="0.2"/>
<circle cx="95.8425" cy="19.4211" r="2.15789" fill="white" fill-opacity="0.2"/>
<circle cx="18.1579" cy="28.0526" r="2.15789" fill="white" fill-opacity="0.2"/>
<circle cx="26.7902" cy="28.0526" r="2.15789" fill="white" fill-opacity="0.2"/>
<circle cx="35.4211" cy="28.0526" r="2.15789" fill="white" fill-opacity="0.2"/>
<circle cx="44.0524" cy="28.0526" r="2.15789" fill="white" fill-opacity="0.2"/>
<circle cx="52.6833" cy="28.0526" r="2.15789" fill="white" fill-opacity="0.2"/>
<circle cx="61.3156" cy="28.0526" r="2.15789" fill="white" fill-opacity="0.2"/>
<circle cx="69.9474" cy="28.0526" r="2.15789" fill="white" fill-opacity="0.2"/>
<circle cx="78.5788" cy="28.0526" r="2.15789" fill="white" fill-opacity="0.2"/>
<circle cx="87.2101" cy="28.0526" r="2.15789" fill="white" fill-opacity="0.2"/>
<circle cx="95.8425" cy="28.0526" r="2.15789" fill="white" fill-opacity="0.2"/>
<circle cx="18.1579" cy="36.6842" r="2.15789" fill="white" fill-opacity="0.2"/>
<circle cx="26.7902" cy="36.6842" r="2.15789" fill="white" fill-opacity="0.2"/>
<circle cx="35.4211" cy="36.6842" r="2.15789" fill="white" fill-opacity="0.2"/>
<circle cx="44.0524" cy="36.6842" r="2.15789" fill="white" fill-opacity="0.2"/>
<circle cx="52.6833" cy="36.6842" r="2.15789" fill="white" fill-opacity="0.2"/>
<circle cx="61.3156" cy="36.6842" r="2.15789" fill="white" fill-opacity="0.2"/>
<circle cx="69.9474" cy="36.6842" r="2.15789" fill="white" fill-opacity="0.2"/>
<circle cx="78.5788" cy="36.6842" r="2.15789" fill="white" fill-opacity="0.2"/>
<circle cx="87.2101" cy="36.6842" r="2.15789" fill="white" fill-opacity="0.2"/>
<circle cx="95.8425" cy="36.6842" r="2.15789" fill="white" fill-opacity="0.2"/>
<circle cx="18.1579" cy="45.3158" r="2.15789" fill="white" fill-opacity="0.2"/>
<circle cx="26.7902" cy="45.3158" r="2.15789" fill="white" fill-opacity="0.2"/>
<circle cx="35.4211" cy="45.3158" r="2.15789" fill="white" fill-opacity="0.2"/>
<circle cx="44.0524" cy="45.3158" r="2.15789" fill="white" fill-opacity="0.2"/>
<circle cx="52.6833" cy="45.3158" r="2.15789" fill="white" fill-opacity="0.2"/>
<circle cx="61.3156" cy="45.3158" r="2.15789" fill="white" fill-opacity="0.2"/>
<circle cx="69.9474" cy="45.3158" r="2.15789" fill="white" fill-opacity="0.2"/>
<circle cx="78.5788" cy="45.3158" r="2.15789" fill="white" fill-opacity="0.2"/>
<circle cx="87.2101" cy="45.3158" r="2.15789" fill="white" fill-opacity="0.2"/>
<circle cx="95.8425" cy="45.3158" r="2.15789" fill="white" fill-opacity="0.2"/>
<circle cx="18.1579" cy="53.9473" r="2.15789" fill="white" fill-opacity="0.2"/>
<circle cx="26.7902" cy="53.9473" r="2.15789" fill="white" fill-opacity="0.2"/>
<circle cx="35.4211" cy="53.9473" r="2.15789" fill="white" fill-opacity="0.2"/>
<circle cx="44.0524" cy="53.9473" r="2.15789" fill="white" fill-opacity="0.2"/>
<circle cx="52.6833" cy="53.9473" r="2.15789" fill="white" fill-opacity="0.2"/>
<circle cx="61.3156" cy="53.9473" r="2.15789" fill="white" fill-opacity="0.2"/>
<circle cx="69.9474" cy="53.9473" r="2.15789" fill="white" fill-opacity="0.2"/>
<circle cx="78.5788" cy="53.9473" r="2.15789" fill="white" fill-opacity="0.2"/>
<circle cx="87.2101" cy="53.9473" r="2.15789" fill="white" fill-opacity="0.2"/>
<circle cx="95.8425" cy="53.9473" r="2.15789" fill="white" fill-opacity="0.2"/>
<circle cx="18.1579" cy="62.5789" r="2.15789" fill="white" fill-opacity="0.2"/>
<circle cx="26.7902" cy="62.5789" r="2.15789" fill="white" fill-opacity="0.2"/>
<circle cx="35.4211" cy="62.5789" r="2.15789" fill="white" fill-opacity="0.2"/>
<circle cx="44.0524" cy="62.5789" r="2.15789" fill="white" fill-opacity="0.2"/>
<circle cx="52.6833" cy="62.5789" r="2.15789" fill="white" fill-opacity="0.2"/>
<circle cx="61.3156" cy="62.5789" r="2.15789" fill="white" fill-opacity="0.2"/>
<circle cx="69.9474" cy="62.5789" r="2.15789" fill="white" fill-opacity="0.2"/>
<circle cx="78.5788" cy="62.5789" r="2.15789" fill="white" fill-opacity="0.2"/>
<circle cx="87.2101" cy="62.5789" r="2.15789" fill="white" fill-opacity="0.2"/>
<circle cx="95.8425" cy="62.5789" r="2.15789" fill="white" fill-opacity="0.2"/>
<circle cx="18.1579" cy="71.2105" r="2.15789" fill="white" fill-opacity="0.2"/>
<circle cx="26.7902" cy="71.2105" r="2.15789" fill="white" fill-opacity="0.2"/>
<circle cx="35.4211" cy="71.2105" r="2.15789" fill="white" fill-opacity="0.2"/>
<circle cx="44.0524" cy="71.2105" r="2.15789" fill="white" fill-opacity="0.2"/>
<circle cx="52.6833" cy="71.2105" r="2.15789" fill="white" fill-opacity="0.2"/>
<circle cx="61.3156" cy="71.2105" r="2.15789" fill="white" fill-opacity="0.2"/>
<circle cx="69.9474" cy="71.2105" r="2.15789" fill="white" fill-opacity="0.2"/>
<circle cx="78.5788" cy="71.2105" r="2.15789" fill="white" fill-opacity="0.2"/>
<circle cx="87.2101" cy="71.2105" r="2.15789" fill="white" fill-opacity="0.2"/>
<circle cx="95.8425" cy="71.2105" r="2.15789" fill="white" fill-opacity="0.2"/>
<circle cx="18.1579" cy="79.8422" r="2.15789" fill="white" fill-opacity="0.2"/>
<circle cx="26.7902" cy="79.8422" r="2.15789" fill="white" fill-opacity="0.2"/>
<circle cx="35.4211" cy="79.8422" r="2.15789" fill="white" fill-opacity="0.2"/>
<circle cx="44.0524" cy="79.8422" r="2.15789" fill="white" fill-opacity="0.2"/>
<circle cx="52.6833" cy="79.8422" r="2.15789" fill="white" fill-opacity="0.2"/>
<circle cx="61.3156" cy="79.8422" r="2.15789" fill="white" fill-opacity="0.2"/>
<circle cx="69.9474" cy="79.8422" r="2.15789" fill="white" fill-opacity="0.2"/>
<circle cx="78.5788" cy="79.8422" r="2.15789" fill="white" fill-opacity="0.2"/>
<circle cx="87.2101" cy="79.8422" r="2.15789" fill="white" fill-opacity="0.2"/>
<circle cx="95.8425" cy="79.8422" r="2.15789" fill="white" fill-opacity="0.2"/>
</svg>
