<svg width="82" height="82" viewBox="0 0 82 82" fill="none" xmlns="http://www.w3.org/2000/svg">
<circle cx="2.15789" cy="2.15789" r="2.15789" fill="white" fill-opacity="0.2"/>
<circle cx="10.7902" cy="2.15789" r="2.15789" fill="white" fill-opacity="0.2"/>
<circle cx="19.4211" cy="2.15789" r="2.15789" fill="white" fill-opacity="0.2"/>
<circle cx="28.0524" cy="2.15789" r="2.15789" fill="white" fill-opacity="0.2"/>
<circle cx="36.6833" cy="2.15789" r="2.15789" fill="white" fill-opacity="0.2"/>
<circle cx="45.3156" cy="2.15789" r="2.15789" fill="white" fill-opacity="0.2"/>
<circle cx="53.9474" cy="2.15789" r="2.15789" fill="white" fill-opacity="0.2"/>
<circle cx="62.5788" cy="2.15789" r="2.15789" fill="white" fill-opacity="0.2"/>
<circle cx="71.2101" cy="2.15789" r="2.15789" fill="white" fill-opacity="0.2"/>
<circle cx="79.8425" cy="2.15789" r="2.15789" fill="white" fill-opacity="0.2"/>
<circle cx="2.15789" cy="10.7895" r="2.15789" fill="white" fill-opacity="0.2"/>
<circle cx="10.7902" cy="10.7895" r="2.15789" fill="white" fill-opacity="0.2"/>
<circle cx="19.4211" cy="10.7895" r="2.15789" fill="white" fill-opacity="0.2"/>
<circle cx="28.0524" cy="10.7895" r="2.15789" fill="white" fill-opacity="0.2"/>
<circle cx="36.6833" cy="10.7895" r="2.15789" fill="white" fill-opacity="0.2"/>
<circle cx="45.3156" cy="10.7895" r="2.15789" fill="white" fill-opacity="0.2"/>
<circle cx="53.9474" cy="10.7895" r="2.15789" fill="white" fill-opacity="0.2"/>
<circle cx="62.5788" cy="10.7895" r="2.15789" fill="white" fill-opacity="0.2"/>
<circle cx="71.2101" cy="10.7895" r="2.15789" fill="white" fill-opacity="0.2"/>
<circle cx="79.8425" cy="10.7895" r="2.15789" fill="white" fill-opacity="0.2"/>
<circle cx="2.15789" cy="19.4211" r="2.15789" fill="white" fill-opacity="0.2"/>
<circle cx="10.7902" cy="19.4211" r="2.15789" fill="white" fill-opacity="0.2"/>
<circle cx="19.4211" cy="19.4211" r="2.15789" fill="white" fill-opacity="0.2"/>
<circle cx="28.0524" cy="19.4211" r="2.15789" fill="white" fill-opacity="0.2"/>
<circle cx="36.6833" cy="19.4211" r="2.15789" fill="white" fill-opacity="0.2"/>
<circle cx="45.3156" cy="19.4211" r="2.15789" fill="white" fill-opacity="0.2"/>
<circle cx="53.9474" cy="19.4211" r="2.15789" fill="white" fill-opacity="0.2"/>
<circle cx="62.5788" cy="19.4211" r="2.15789" fill="white" fill-opacity="0.2"/>
<circle cx="71.2101" cy="19.4211" r="2.15789" fill="white" fill-opacity="0.2"/>
<circle cx="79.8425" cy="19.4211" r="2.15789" fill="white" fill-opacity="0.2"/>
<circle cx="2.15789" cy="28.0526" r="2.15789" fill="white" fill-opacity="0.2"/>
<circle cx="10.7902" cy="28.0526" r="2.15789" fill="white" fill-opacity="0.2"/>
<circle cx="19.4211" cy="28.0526" r="2.15789" fill="white" fill-opacity="0.2"/>
<circle cx="28.0524" cy="28.0526" r="2.15789" fill="white" fill-opacity="0.2"/>
<circle cx="36.6833" cy="28.0526" r="2.15789" fill="white" fill-opacity="0.2"/>
<circle cx="45.3156" cy="28.0526" r="2.15789" fill="white" fill-opacity="0.2"/>
<circle cx="53.9474" cy="28.0526" r="2.15789" fill="white" fill-opacity="0.2"/>
<circle cx="62.5788" cy="28.0526" r="2.15789" fill="white" fill-opacity="0.2"/>
<circle cx="71.2101" cy="28.0526" r="2.15789" fill="white" fill-opacity="0.2"/>
<circle cx="79.8425" cy="28.0526" r="2.15789" fill="white" fill-opacity="0.2"/>
<circle cx="2.15789" cy="36.6842" r="2.15789" fill="white" fill-opacity="0.2"/>
<circle cx="10.7902" cy="36.6842" r="2.15789" fill="white" fill-opacity="0.2"/>
<circle cx="19.4211" cy="36.6842" r="2.15789" fill="white" fill-opacity="0.2"/>
<circle cx="28.0524" cy="36.6842" r="2.15789" fill="white" fill-opacity="0.2"/>
<circle cx="36.6833" cy="36.6842" r="2.15789" fill="white" fill-opacity="0.2"/>
<circle cx="45.3156" cy="36.6842" r="2.15789" fill="white" fill-opacity="0.2"/>
<circle cx="53.9474" cy="36.6842" r="2.15789" fill="white" fill-opacity="0.2"/>
<circle cx="62.5788" cy="36.6842" r="2.15789" fill="white" fill-opacity="0.2"/>
<circle cx="71.2101" cy="36.6842" r="2.15789" fill="white" fill-opacity="0.2"/>
<circle cx="79.8425" cy="36.6842" r="2.15789" fill="white" fill-opacity="0.2"/>
<circle cx="2.15789" cy="45.3158" r="2.15789" fill="white" fill-opacity="0.2"/>
<circle cx="10.7902" cy="45.3158" r="2.15789" fill="white" fill-opacity="0.2"/>
<circle cx="19.4211" cy="45.3158" r="2.15789" fill="white" fill-opacity="0.2"/>
<circle cx="28.0524" cy="45.3158" r="2.15789" fill="white" fill-opacity="0.2"/>
<circle cx="36.6833" cy="45.3158" r="2.15789" fill="white" fill-opacity="0.2"/>
<circle cx="45.3156" cy="45.3158" r="2.15789" fill="white" fill-opacity="0.2"/>
<circle cx="53.9474" cy="45.3158" r="2.15789" fill="white" fill-opacity="0.2"/>
<circle cx="62.5788" cy="45.3158" r="2.15789" fill="white" fill-opacity="0.2"/>
<circle cx="71.2101" cy="45.3158" r="2.15789" fill="white" fill-opacity="0.2"/>
<circle cx="79.8425" cy="45.3158" r="2.15789" fill="white" fill-opacity="0.2"/>
<circle cx="2.15789" cy="53.9473" r="2.15789" fill="white" fill-opacity="0.2"/>
<circle cx="10.7902" cy="53.9473" r="2.15789" fill="white" fill-opacity="0.2"/>
<circle cx="19.4211" cy="53.9473" r="2.15789" fill="white" fill-opacity="0.2"/>
<circle cx="28.0524" cy="53.9473" r="2.15789" fill="white" fill-opacity="0.2"/>
<circle cx="36.6833" cy="53.9473" r="2.15789" fill="white" fill-opacity="0.2"/>
<circle cx="45.3156" cy="53.9473" r="2.15789" fill="white" fill-opacity="0.2"/>
<circle cx="53.9474" cy="53.9473" r="2.15789" fill="white" fill-opacity="0.2"/>
<circle cx="62.5788" cy="53.9473" r="2.15789" fill="white" fill-opacity="0.2"/>
<circle cx="71.2101" cy="53.9473" r="2.15789" fill="white" fill-opacity="0.2"/>
<circle cx="79.8425" cy="53.9473" r="2.15789" fill="white" fill-opacity="0.2"/>
<circle cx="2.15789" cy="62.5789" r="2.15789" fill="white" fill-opacity="0.2"/>
<circle cx="10.7902" cy="62.5789" r="2.15789" fill="white" fill-opacity="0.2"/>
<circle cx="19.4211" cy="62.5789" r="2.15789" fill="white" fill-opacity="0.2"/>
<circle cx="28.0524" cy="62.5789" r="2.15789" fill="white" fill-opacity="0.2"/>
<circle cx="36.6833" cy="62.5789" r="2.15789" fill="white" fill-opacity="0.2"/>
<circle cx="45.3156" cy="62.5789" r="2.15789" fill="white" fill-opacity="0.2"/>
<circle cx="53.9474" cy="62.5789" r="2.15789" fill="white" fill-opacity="0.2"/>
<circle cx="62.5788" cy="62.5789" r="2.15789" fill="white" fill-opacity="0.2"/>
<circle cx="71.2101" cy="62.5789" r="2.15789" fill="white" fill-opacity="0.2"/>
<circle cx="79.8425" cy="62.5789" r="2.15789" fill="white" fill-opacity="0.2"/>
<circle cx="2.15789" cy="71.2105" r="2.15789" fill="white" fill-opacity="0.2"/>
<circle cx="10.7902" cy="71.2105" r="2.15789" fill="white" fill-opacity="0.2"/>
<circle cx="19.4211" cy="71.2105" r="2.15789" fill="white" fill-opacity="0.2"/>
<circle cx="28.0524" cy="71.2105" r="2.15789" fill="white" fill-opacity="0.2"/>
<circle cx="36.6833" cy="71.2105" r="2.15789" fill="white" fill-opacity="0.2"/>
<circle cx="45.3156" cy="71.2105" r="2.15789" fill="white" fill-opacity="0.2"/>
<circle cx="53.9474" cy="71.2105" r="2.15789" fill="white" fill-opacity="0.2"/>
<circle cx="62.5788" cy="71.2105" r="2.15789" fill="white" fill-opacity="0.2"/>
<circle cx="71.2101" cy="71.2105" r="2.15789" fill="white" fill-opacity="0.2"/>
<circle cx="79.8425" cy="71.2105" r="2.15789" fill="white" fill-opacity="0.2"/>
<circle cx="2.15789" cy="79.8422" r="2.15789" fill="white" fill-opacity="0.2"/>
<circle cx="10.7902" cy="79.8422" r="2.15789" fill="white" fill-opacity="0.2"/>
<circle cx="19.4211" cy="79.8422" r="2.15789" fill="white" fill-opacity="0.2"/>
<circle cx="28.0524" cy="79.8422" r="2.15789" fill="white" fill-opacity="0.2"/>
<circle cx="36.6833" cy="79.8422" r="2.15789" fill="white" fill-opacity="0.2"/>
<circle cx="45.3156" cy="79.8422" r="2.15789" fill="white" fill-opacity="0.2"/>
<circle cx="53.9474" cy="79.8422" r="2.15789" fill="white" fill-opacity="0.2"/>
<circle cx="62.5788" cy="79.8422" r="2.15789" fill="white" fill-opacity="0.2"/>
<circle cx="71.2101" cy="79.8422" r="2.15789" fill="white" fill-opacity="0.2"/>
<circle cx="79.8425" cy="79.8422" r="2.15789" fill="white" fill-opacity="0.2"/>
</svg>
